<svg xmlns="http://www.w3.org/2000/svg" width="120.043" height="32.674" viewBox="0 0 120.043 32.674">
  <path id="logo1" d="M16.715,7.932A3.442,3.442,0,0,0,16,7.422a13.355,13.355,0,0,0-1.53-.782,14.829,14.829,0,0,0-2.006-.714,8,8,0,0,0-2.176-.306Q7.3,5.62,7.3,7.626a1.588,1.588,0,0,0,.323,1.02,2.838,2.838,0,0,0,.952.731,8.789,8.789,0,0,0,1.58.6l1.406.393.805.219a28.874,28.874,0,0,1,3.128,1.037,8.414,8.414,0,0,1,2.363,1.394,5.647,5.647,0,0,1,1.5,2.023,7.043,7.043,0,0,1,.527,2.856,7.159,7.159,0,0,1-.765,3.451,6.461,6.461,0,0,1-2.023,2.278,8.567,8.567,0,0,1-2.89,1.258,14.432,14.432,0,0,1-3.366.391,19.68,19.68,0,0,1-5.44-.8,21.416,21.416,0,0,1-2.567-.935A14.358,14.358,0,0,1,.53,22.28l2.448-4.862a4.736,4.736,0,0,0,.884.646,13.189,13.189,0,0,0,1.853.952,19.022,19.022,0,0,0,2.465.85,10.307,10.307,0,0,0,2.754.374q2.958,0,2.958-1.8a1.524,1.524,0,0,0-.442-1.122,4.164,4.164,0,0,0-1.224-.8,12.455,12.455,0,0,0-1.5-.56l-1.7-.5-.976-.288a20.074,20.074,0,0,1-2.89-1.1,7.657,7.657,0,0,1-2.023-1.377,5,5,0,0,1-1.19-1.8A6.622,6.622,0,0,1,1.55,8.51a7.577,7.577,0,0,1,.714-3.366A7.266,7.266,0,0,1,4.2,2.679,8.435,8.435,0,0,1,7.041,1.166a11.275,11.275,0,0,1,3.417-.51A13.032,13.032,0,0,1,12.94.894a18.812,18.812,0,0,1,2.346.612,16.832,16.832,0,0,1,2.09.85q.97.475,1.786.952L16.714,7.932ZM40.139,25H34.7V14.97a3.944,3.944,0,0,0-.68-2.55,2.3,2.3,0,0,0-1.87-.816,2.851,2.851,0,0,0-1.037.221,4.173,4.173,0,0,0-1.088.646,5.827,5.827,0,0,0-.97,1,4.4,4.4,0,0,0-.68,1.292V25h-5.44V.18h5.44v9.962a6.786,6.786,0,0,1,2.6-2.465,7.387,7.387,0,0,1,3.553-.867,5.856,5.856,0,0,1,2.907.629,4.643,4.643,0,0,1,1.7,1.6,6.047,6.047,0,0,1,.8,2.176,14.166,14.166,0,0,1,.2,2.363V25Zm12.34.34a10.441,10.441,0,0,1-4.063-.748,8.868,8.868,0,0,1-3.01-2.023,8.54,8.54,0,0,1-1.852-2.958,10.143,10.143,0,0,1,0-7.038,8.54,8.54,0,0,1,1.853-2.958,9.053,9.053,0,0,1,3.009-2.04,10.225,10.225,0,0,1,4.063-.765,10.1,10.1,0,0,1,4.046.765,9.092,9.092,0,0,1,2.992,2.04,8.754,8.754,0,0,1,1.87,2.958,9.736,9.736,0,0,1,.646,3.519,9.97,9.97,0,0,1-.63,3.519,8.54,8.54,0,0,1-1.852,2.958,8.858,8.858,0,0,1-3.01,2.023A10.418,10.418,0,0,1,52.479,25.34ZM48.5,16.092a4.936,4.936,0,0,0,1.122,3.383,3.636,3.636,0,0,0,2.856,1.275,3.59,3.59,0,0,0,1.564-.34,3.739,3.739,0,0,0,1.24-.952,4.57,4.57,0,0,0,.834-1.479,5.632,5.632,0,0,0,.306-1.887A4.936,4.936,0,0,0,55.3,12.709a3.6,3.6,0,0,0-2.822-1.275,3.7,3.7,0,0,0-2.84,1.292,4.57,4.57,0,0,0-.832,1.479,5.632,5.632,0,0,0-.306,1.887Zm27.776-4.284a10.429,10.429,0,0,0-3.57.646,4.354,4.354,0,0,0-2.312,1.836V25h-5.44V7.15h5v3.6a7.586,7.586,0,0,1,2.363-2.822,5.448,5.448,0,0,1,3.077-1.054h.544a1.7,1.7,0,0,1,.34.034v4.9ZM90.35,24.048a21.711,21.711,0,0,1-2.567.884,10.648,10.648,0,0,1-2.907.408,7.014,7.014,0,0,1-1.92-.255,4.286,4.286,0,0,1-1.582-.816A3.806,3.806,0,0,1,80.3,22.79a5.6,5.6,0,0,1-.392-2.21V11.264H77.634V7.15h2.278V1.472h5.44V7.15H88.99v4.114H85.352V18.71a1.457,1.457,0,0,0,1.564,1.666,4.168,4.168,0,0,0,1.258-.2A7.7,7.7,0,0,0,89.3,19.73l1.054,4.318ZM92.627.18h5.44V18.642q0,2.04,1.734,2.04a3.887,3.887,0,0,0,.9-.119,3.319,3.319,0,0,0,.9-.357l.714,4.08a10.565,10.565,0,0,1-2.346.748,12.41,12.41,0,0,1-2.482.272,4.959,4.959,0,0,1-3.6-1.224,4.71,4.71,0,0,1-1.258-3.536V.18Zm11.456,27.506a7.95,7.95,0,0,0,1.275.34,6.4,6.4,0,0,0,1.071.1,1.847,1.847,0,0,0,1.53-.68A6.766,6.766,0,0,0,108.945,25l-6.8-17.85h5.61L111.9,20.342l3.57-13.192h5.1l-6.8,20.74a7.058,7.058,0,0,1-6.9,4.964,8.17,8.17,0,0,1-1.377-.119,7.516,7.516,0,0,1-1.41-.391V27.686Z" transform="translate(-0.53 -0.18)" fill="#fff"/>
</svg>
